<svg xmlns="http://www.w3.org/2000/svg" xmlns:xlink="http://www.w3.org/1999/xlink" viewBox="0 0 46.03 49.81"><defs><style>.cls-1{fill:none;}.cls-2{clip-path:url(#clip-path);}.cls-3{fill:url(#linear-gradient);}.cls-4{fill:url(#linear-gradient-2);}.cls-5{clip-path:url(#clip-path-3);}.cls-6{fill:url(#linear-gradient-3);}.cls-7{clip-path:url(#clip-path-4);}.cls-8{fill:url(#linear-gradient-4);}.cls-9{clip-path:url(#clip-path-5);}.cls-10{fill:url(#linear-gradient-5);}.cls-11{fill:url(#linear-gradient-6);}</style><clipPath id="clip-path" transform="translate(4.32 4.52)"><path class="cls-1" d="M27.28,22.05C22.11,37,4.66,39.32,4.66,39.32c25.26,1.45,30.67-20,30.67-20C16.43,19.67,2.87,0,2.87,0,6.58,17.76,27.28,22.05,27.28,22.05"/></clipPath><linearGradient id="linear-gradient" x1="872.53" y1="3182.41" x2="872.67" y2="3182.41" gradientTransform="translate(203154.5 740854.69) rotate(180) scale(232.79)" gradientUnits="userSpaceOnUse"><stop offset="0" stop-color="#ae6d29"/><stop offset="0.06" stop-color="#ae6d29"/><stop offset="0.39" stop-color="#fdbe3b"/><stop offset="0.71" stop-color="#fdbe3b"/><stop offset="0.95" stop-color="#ae6d29"/><stop offset="1" stop-color="#ae6d29"/></linearGradient><linearGradient id="linear-gradient-2" x1="861.45" y1="3165.93" x2="861.59" y2="3165.93" gradientTransform="translate(-361042.84 -1326833.83) scale(419.1)" xlink:href="#linear-gradient"/><clipPath id="clip-path-3" transform="translate(4.32 4.52)"><path class="cls-1" d="M15.89,25.6A25,25,0,0,1,6.65,36.29,24.06,24.06,0,0,0,22.86,23.86,33,33,0,0,1,0,5.27C1,19,15.89,25.6,15.89,25.6"/></clipPath><linearGradient id="linear-gradient-3" x1="875.43" y1="3186.75" x2="875.57" y2="3186.75" gradientTransform="translate(143551.58 522482.81) rotate(180) scale(163.95)" xlink:href="#linear-gradient"/><clipPath id="clip-path-4" transform="translate(4.32 4.52)"><path class="cls-1" d="M0,5.27C1,19,15.89,25.6,15.89,25.6A25,25,0,0,1,6.65,36.29,24.06,24.06,0,0,0,22.86,23.86,33,33,0,0,1,0,5.27Z"/></clipPath><linearGradient id="linear-gradient-4" x1="861.45" y1="3165.94" x2="861.58" y2="3165.94" gradientTransform="translate(-361023.54 -1326778.61) scale(419.09)" xlink:href="#linear-gradient"/><clipPath id="clip-path-5" transform="translate(4.32 4.52)"><path class="cls-1" d="M30.7,10.19a13.91,13.91,0,0,0-9.13,3.16s8.9,4.1,14.72,3.21c1.22-3.86,4.41-2.8,4.41-2.8a11.75,11.75,0,0,0-5.64-3,17.25,17.25,0,0,0-4.36-.57h0"/></clipPath><linearGradient id="linear-gradient-5" x1="878.37" y1="3189.27" x2="878.51" y2="3189.27" gradientTransform="translate(120554.06 437572.28) rotate(180) scale(137.2)" xlink:href="#linear-gradient"/><linearGradient id="linear-gradient-6" x1="861.45" y1="3166" x2="861.59" y2="3166" gradientTransform="translate(-361049.55 -1326890.2) scale(419.11)" xlink:href="#linear-gradient"/></defs><g id="Layer_2" data-name="Layer 2"><g id="Layer_1-2" data-name="Layer 1"><g class="cls-2"><rect class="cls-3" x="7.19" y="4.52" width="32.46" height="40.77"/></g><g class="cls-2"><rect class="cls-4" x="0.17" y="-2.08" width="37.87" height="44.93" transform="translate(1.64 7.41) rotate(-8.08)"/></g><g class="cls-5"><rect class="cls-6" x="4.32" y="9.79" width="22.86" height="31.02"/></g><g class="cls-7"><rect class="cls-8" x="-2.07" y="3.82" width="27" height="33.92" transform="translate(1.51 6.33) rotate(-8.08)"/></g><g class="cls-9"><rect class="cls-10" x="25.89" y="14.71" width="19.13" height="7.26"/></g><g class="cls-9"><rect class="cls-11" x="21.16" y="8.88" width="19.96" height="9.88" transform="translate(2.68 9.04) rotate(-8.08)"/></g></g></g></svg>