<svg xmlns="http://www.w3.org/2000/svg" viewBox="0 0 151.51 118.92"><defs><style>.cls-1{fill:#f2af00;}</style></defs><g id="Layer_2" data-name="Layer 2"><g id="Layer_1-2" data-name="Layer 1"><path class="cls-1" d="M82.85,61.92H82.7a2.46,2.46,0,0,1-2.31-2.6c.6-10.05,8.47-14.62,14-16.07v-25a2.46,2.46,0,1,1,4.92,0V45.25a2.47,2.47,0,0,1-2.14,2.45c-.45.06-11.2,1.67-11.81,11.9A2.47,2.47,0,0,1,82.85,61.92Z"/><path class="cls-1" d="M96.8,96.28H47a2.46,2.46,0,0,1-2.46-2.46V83.88A67.17,67.17,0,0,0,41.5,64l-1.45-4.68a33.21,33.21,0,0,1-1.51-9.95V45a2.46,2.46,0,1,1,4.92,0v4.3a28.43,28.43,0,0,0,1.29,8.49l1.45,4.68a72,72,0,0,1,3.24,21.37v7.48h44.9v-18A2.45,2.45,0,0,1,95,71.64l12.21-13.12a18.77,18.77,0,0,0,5.06-12.86v-27a6.81,6.81,0,0,0-5.91-6.95,6.47,6.47,0,0,0-5,1.69,6.53,6.53,0,0,0-2.11,4.8,2.46,2.46,0,0,1-4.92,0A11.42,11.42,0,0,1,106.78,6.8,11.76,11.76,0,0,1,117.2,18.65v27a23.75,23.75,0,0,1-6.38,16.22L99.26,74.29V93.82A2.46,2.46,0,0,1,96.8,96.28Z"/><path class="cls-1" d="M100.14,118.92H43.63a2.46,2.46,0,0,1-2.46-2.46V93.82a2.46,2.46,0,0,1,2.46-2.46h56.51a2.47,2.47,0,0,1,2.47,2.46v22.64A2.47,2.47,0,0,1,100.14,118.92ZM46.1,114H97.68V96.28H46.1Z"/><path class="cls-1" d="M89.82,39.27a9.44,9.44,0,0,1-9.43-9.43V12.19a9.44,9.44,0,0,1,18.87,0V29.84A9.44,9.44,0,0,1,89.82,39.27Zm0-31.59a4.52,4.52,0,0,0-4.51,4.51V29.84a4.52,4.52,0,0,0,9,0V12.19A4.53,4.53,0,0,0,89.82,7.68Z"/><path class="cls-1" d="M75.87,42a9.44,9.44,0,0,1-9.43-9.44V9.44a9.44,9.44,0,1,1,18.87,0V32.59A9.44,9.44,0,0,1,75.87,42Zm0-37.11a4.53,4.53,0,0,0-4.51,4.52V32.59a4.52,4.52,0,1,0,9,0V9.44A4.53,4.53,0,0,0,75.87,4.92Z"/><path class="cls-1" d="M61.92,39.27a9.44,9.44,0,0,1-9.43-9.43V12.19a9.44,9.44,0,0,1,18.87,0V29.84A9.44,9.44,0,0,1,61.92,39.27Zm0-31.59a4.52,4.52,0,0,0-4.51,4.51V29.84a4.52,4.52,0,0,0,9,0V12.19A4.53,4.53,0,0,0,61.92,7.68Z"/><path class="cls-1" d="M48,36.86a9.44,9.44,0,0,1-9.43-9.44V18.28a9.44,9.44,0,0,1,18.87,0v9.14A9.44,9.44,0,0,1,48,36.86Zm0-23.09a4.52,4.52,0,0,0-4.51,4.51v9.14a4.52,4.52,0,1,0,9,0V18.28A4.53,4.53,0,0,0,48,13.77Z"/><path class="cls-1" d="M134.46,49.46H125A2.46,2.46,0,0,1,122.51,47V20.62A2.46,2.46,0,0,1,125,18.16h9.49a2.46,2.46,0,0,1,2.46,2.46V47A2.46,2.46,0,0,1,134.46,49.46Zm-7-4.92H132V23.08h-4.56Z"/><path class="cls-1" d="M143.23,47.5h-8.77A2.47,2.47,0,0,1,132,45V22.58a2.47,2.47,0,0,1,2.47-2.46h8.77a8.29,8.29,0,0,1,8.28,8.29v10.8A8.29,8.29,0,0,1,143.23,47.5Zm-6.31-4.93h6.31a3.36,3.36,0,0,0,3.36-3.36V28.41a3.36,3.36,0,0,0-3.36-3.36h-6.31Z"/><path class="cls-1" d="M24.28,47.5a2.39,2.39,0,0,1-1.13-.28L1.34,36a2.46,2.46,0,0,1,0-4.38L23.15,20.39a2.47,2.47,0,0,1,3.59,2.19V45a2.46,2.46,0,0,1-2.46,2.46ZM7.84,33.81l14,7.19V26.62Z"/><path class="cls-1" d="M125,36.27H114.74a2.46,2.46,0,1,1,0-4.92H125a2.46,2.46,0,1,1,0,4.92Z"/><path class="cls-1" d="M45.17,36.27H24.28a2.46,2.46,0,0,1,0-4.92H45.17a2.46,2.46,0,0,1,0,4.92Z"/><path class="cls-1" d="M96.8,47.5H24.28A2.46,2.46,0,0,1,21.82,45V22.58a2.46,2.46,0,0,1,2.46-2.46H41a2.47,2.47,0,0,1,0,4.93H26.74V42.57H96.8a2.47,2.47,0,0,1,0,4.93Z"/><path class="cls-1" d="M125,47.5H114.74A2.47,2.47,0,0,1,112.27,45V22.58a2.47,2.47,0,0,1,2.47-2.46H125a2.46,2.46,0,0,1,2.46,2.46V45A2.46,2.46,0,0,1,125,47.5Zm-7.77-4.93h5.31V25.05H117.2Z"/><path class="cls-1" d="M114.74,118.92H32.84a2.46,2.46,0,1,1,0-4.92h81.9a2.46,2.46,0,1,1,0,4.92Z"/></g></g></svg>