<svg xmlns="http://www.w3.org/2000/svg" viewBox="0 0 118.04 118.11"><defs><style>.cls-1{fill:#f2af00;}</style></defs><g id="Layer_2" data-name="Layer 2"><g id="Layer_1-2" data-name="Layer 1"><path class="cls-1" d="M48,73.37a2,2,0,0,1-2-2V62.84a2,2,0,0,1,4,0v8.51A2,2,0,0,1,48,73.37Z"/><path class="cls-1" d="M54.67,73.37a2,2,0,0,1-2-2V55.81a2,2,0,1,1,4,0V71.35A2,2,0,0,1,54.67,73.37Z"/><path class="cls-1" d="M61.38,73.29a2,2,0,0,1-2-2V55.81a2,2,0,1,1,4,0V71.27A2,2,0,0,1,61.38,73.29Z"/><path class="cls-1" d="M68.09,85a2,2,0,0,1-2-2V70a2,2,0,1,1,4,0V83A2,2,0,0,1,68.09,85Z"/><path class="cls-1" d="M68.09,108.41h-24a2,2,0,0,1-2-2v-4.78a31.47,31.47,0,0,0-1.41-9.34l-.37-1.18a24.21,24.21,0,0,1-1.09-7.22V63a5.36,5.36,0,0,1,6.71-5.38V56A5.38,5.38,0,0,1,53,50.72a5.35,5.35,0,0,1,10,0,5.4,5.4,0,0,1,3-.12,5.51,5.51,0,0,1,4.1,5.4v8.1a6.37,6.37,0,0,1,2.64-.42,6.63,6.63,0,0,1,6,6.57v13a12.29,12.29,0,0,1-3.29,8.37L70.59,96.8A1.79,1.79,0,0,0,70.11,98v8.36A2,2,0,0,1,68.09,108.41Zm-22-4H66.08V98a5.81,5.81,0,0,1,1.56-4l4.85-5.21a8.21,8.21,0,0,0,2.22-5.62v-13a2.6,2.6,0,0,0-2.18-2.54,2.33,2.33,0,0,0-1.7.63A2.29,2.29,0,0,0,70.11,70a2,2,0,0,1-4,0V56a1.48,1.48,0,0,0-1-1.48,1.37,1.37,0,0,0-1.18.25,1.31,1.31,0,0,0-.51,1.05,2,2,0,1,1-4,0v-3.2a1.32,1.32,0,0,0-.51-1,1.34,1.34,0,0,0-1.18-.24,1.47,1.47,0,0,0-1,1.47v3a2,2,0,1,1-4,0,1.31,1.31,0,0,0-.51-1.05A1.35,1.35,0,0,0,51,54.51,1.48,1.48,0,0,0,50,56v6.85a2,2,0,1,1-4,0,1.35,1.35,0,0,0-.51-1.05,1.38,1.38,0,0,0-1.18-.25,1.48,1.48,0,0,0-1,1.48V83.87a20.48,20.48,0,0,0,.91,6l.37,1.18a35.53,35.53,0,0,1,1.59,10.54Z"/><path class="cls-1" d="M59.83,48.83a2.07,2.07,0,0,1-1-.27l-6-3.46a2,2,0,1,1,2-3.49l6,3.46a2,2,0,0,1-1,3.76Z"/><path class="cls-1" d="M54.67,53.6a2,2,0,0,1-1-.27l-4.18-2.41a2,2,0,0,1,2-3.5l4.18,2.42a2,2,0,0,1-1,3.76Z"/><path class="cls-1" d="M42.12,61.86a2.07,2.07,0,0,1-1-.27l-8.44-4.88a2,2,0,1,1,2-3.49l8.45,4.87a2,2,0,0,1-1,3.77Z"/><path class="cls-1" d="M41.21,71.2a2.06,2.06,0,0,1-.65-.11,6.31,6.31,0,0,1-1.15-.52L28.18,64.08a12.18,12.18,0,0,1-5.6-7l-2.09-6.81a1.76,1.76,0,0,0-.82-1L12.43,45a2,2,0,0,1-.74-2.76l12-20.76a2,2,0,0,1,2.75-.74l4.14,2.39a31.44,31.44,0,0,0,8.8,3.45l1.2.27a24.12,24.12,0,0,1,6.8,2.66L60,36.83a2,2,0,1,1-2,3.49L45.36,33a20.4,20.4,0,0,0-5.68-2.22l-1.2-.27a35.34,35.34,0,0,1-9.92-3.89l-2.4-1.38-10,17.27,5.49,3.17a5.82,5.82,0,0,1,2.67,3.35l2.09,6.81a8.19,8.19,0,0,0,3.76,4.72l11.24,6.49a2.6,2.6,0,0,0,.42.19,2,2,0,0,1-.65,3.93Z"/><path class="cls-1" d="M68.58,68.27a2,2,0,0,1-1-3.77l6.57-3.79a2,2,0,1,1,2,3.49L69.58,68A2,2,0,0,1,68.58,68.27Z"/><path class="cls-1" d="M68.58,60.52a2,2,0,0,1-1-3.77l3.21-1.85a2,2,0,1,1,2,3.49l-3.22,1.86A2,2,0,0,1,68.58,60.52Z"/><path class="cls-1" d="M66.37,54a2,2,0,0,1-1-3.76l2-1.15a2,2,0,1,1,2,3.49l-2,1.15A1.91,1.91,0,0,1,66.37,54Z"/><path class="cls-1" d="M63.9,47.71a2,2,0,0,1-1-3.76l11.28-6.51a2,2,0,1,1,2,3.49L64.91,47.44A2,2,0,0,1,63.9,47.71Z"/><path class="cls-1" d="M76.93,71.2a2,2,0,0,1-1-3.76l12.41-7.17a20.1,20.1,0,0,0,4.76-3.81l.85-.9a34.94,34.94,0,0,1,8.32-6.65l2.39-1.39-10-17.27-5.49,3.17a5.79,5.79,0,0,1-4.23.64L78,32.46a8.24,8.24,0,0,0-6,.9L60.8,39.85A2.6,2.6,0,0,0,59.69,43a2.28,2.28,0,0,0,1.4,1.16,2.23,2.23,0,0,0,1.8-.21,2,2,0,1,1,2,3.49l-5.57,3.22a2,2,0,1,1-2-3.49l.46-.27a6.31,6.31,0,0,1-1.68-2.07,6.62,6.62,0,0,1,2.69-8.48L70,29.87a12.21,12.21,0,0,1,8.89-1.34l6.94,1.6a1.82,1.82,0,0,0,1.31-.2l7.24-4.18a2,2,0,0,1,2.76.74l12,20.76a2,2,0,0,1-.74,2.76l-4.15,2.39a31.53,31.53,0,0,0-7.37,5.89l-.85.91a24.13,24.13,0,0,1-5.7,4.56L77.94,70.93A2.07,2.07,0,0,1,76.93,71.2Z"/><path class="cls-1" d="M108.21,51.67a1.86,1.86,0,0,1-.52-.07,2,2,0,0,1-1.22-.94L92.87,27.11a2,2,0,0,1,.74-2.75L101.12,20a2,2,0,0,1,2.53.43,59.17,59.17,0,0,1,12.82,25.11,2,2,0,0,1-1,2.21l-6.3,3.63A2,2,0,0,1,108.21,51.67ZM97.37,26.84,109,46.9,112.19,45a55.1,55.1,0,0,0-10.52-20.67Z"/><path class="cls-1" d="M12.63,46.69a2.07,2.07,0,0,1-1-.27L4.1,42.07a2,2,0,0,1-.9-2.4A59.3,59.3,0,0,1,18.56,16,2,2,0,0,1,21,15.75l6.29,3.63a2,2,0,0,1,.93,1.22,2,2,0,0,1-.2,1.53L14.38,45.68A2,2,0,0,1,12.63,46.69ZM7.58,39.43l4.31,2.49L23.47,21.86,20.25,20A55.27,55.27,0,0,0,7.58,39.43Z"/><path class="cls-1" d="M59,118.11a59,59,0,0,1-17-2.51,2,2,0,0,1-1.44-1.93v-7.28a2,2,0,0,1,2-2H69.7a2,2,0,0,1,2,2v8.69a2,2,0,0,1-1.64,2A59.51,59.51,0,0,1,59,118.11Zm-14.45-6a54.9,54.9,0,0,0,23.16,1.23v-5H44.53Z"/><path class="cls-1" d="M59,118.11A59,59,0,0,1,0,62.05a2,2,0,0,1,1.92-2.11A2,2,0,0,1,4,61.85a55,55,0,0,0,88.2,41.05,2,2,0,1,1,2.44,3.21A58.51,58.51,0,0,1,59,118.11Z"/><path class="cls-1" d="M2.78,51.27a2,2,0,0,1-.34,0A2,2,0,0,1,.8,48.91,59.38,59.38,0,0,1,25.43,10.45a2,2,0,1,1,2.29,3.32A55.31,55.31,0,0,0,4.77,49.6,2,2,0,0,1,2.78,51.27Z"/><path class="cls-1" d="M47.75,5.14a2,2,0,0,1-.4-4Q49,.82,50.65.58a2,2,0,1,1,.56,4c-1,.14-2.05.32-3.07.52A1.72,1.72,0,0,1,47.75,5.14Z"/><path class="cls-1" d="M36.36,8.7a2,2,0,0,1-.8-3.87c1.26-.55,2.55-1.05,3.84-1.5a2,2,0,0,1,1.34,3.8c-1.2.42-2.4.89-3.58,1.4A2.05,2.05,0,0,1,36.36,8.7Z"/><path class="cls-1" d="M26.58,14.13a2,2,0,0,1-1.15-3.68c.92-.63,1.85-1.24,2.8-1.82a2,2,0,0,1,2.1,3.44c-.88.54-1.75,1.11-2.61,1.7A2,2,0,0,1,26.58,14.13Z"/><path class="cls-1" d="M116,61.07a2,2,0,0,1-2-2A55.1,55.1,0,0,0,59,4a56,56,0,0,0-7.77.55,2,2,0,0,1-.56-4A60.83,60.83,0,0,1,59,0,59.12,59.12,0,0,1,118,59.06,2,2,0,0,1,116,61.07Z"/><path class="cls-1" d="M93.45,106.52a2,2,0,0,1-1.6-.8,2,2,0,0,1,.38-2.82q1.24-.95,2.43-2A2,2,0,1,1,97.27,104c-.84.72-1.71,1.42-2.6,2.09A2,2,0,0,1,93.45,106.52Z"/><path class="cls-1" d="M103.93,96.19a2,2,0,0,1-1.59-3.25,53.16,53.16,0,0,0,3.2-4.55A2,2,0,0,1,109,90.54a59.36,59.36,0,0,1-3.43,4.88A2,2,0,0,1,103.93,96.19Zm8.45-15a2,2,0,0,1-1.89-2.73,53.37,53.37,0,0,0,1.69-5.29,2,2,0,0,1,3.9,1,58.66,58.66,0,0,1-1.82,5.68A2,2,0,0,1,112.38,81.18Z"/><path class="cls-1" d="M115.93,64.3h-.11a2,2,0,0,1-1.9-2.12c.06-1,.09-2.07.09-3.11a2,2,0,1,1,4,0q0,1.68-.09,3.33A2,2,0,0,1,115.93,64.3Z"/></g></g></svg>