<svg xmlns="http://www.w3.org/2000/svg" viewBox="0 0 121.6 117.6"><defs><style>.cls-1{fill:#f2af00;}</style></defs><g id="Layer_2" data-name="Layer 2"><g id="Layer_1-2" data-name="Layer 1"><path class="cls-1" d="M55.89,103a47.13,47.13,0,1,1,46.86-52.14,2,2,0,0,1-4,.42A43.12,43.12,0,1,0,55.89,99a2,2,0,0,1,0,4Z"/><path class="cls-1" d="M55.89,111.77A55.89,55.89,0,1,1,111.65,52.1a2,2,0,1,1-4,.27,51.88,51.88,0,1,0-51.76,55.4c.8,0,1.6,0,2.39-.06a2,2,0,0,1,.19,4C57.61,111.76,56.75,111.77,55.89,111.77Z"/><path class="cls-1" d="M55.89,65.55A2,2,0,0,1,54.47,65L46.82,57.3a2,2,0,0,1,0-2.83l7.65-7.65a2,2,0,0,1,2.83,0L65,54.47a2,2,0,0,1,0,2.83L57.3,65A2,2,0,0,1,55.89,65.55Zm-4.82-9.66,4.82,4.82,4.82-4.82-4.82-4.82Z"/><path class="cls-1" d="M55.89,50.24a2,2,0,0,1-2-2V29.87a2,2,0,0,1,4,0V48.23A2,2,0,0,1,55.89,50.24Z"/><path class="cls-1" d="M59.89,54.24a2,2,0,0,1-1.11-3.67l24.09-16a2,2,0,0,1,2.22,3.35L61,53.91A2.05,2.05,0,0,1,59.89,54.24Z"/><path class="cls-1" d="M93.33,117.6H86.16a5.31,5.31,0,0,1-5.31-5.31v-3.53c-.36-.14-.73-.3-1.09-.46l-2.5,2.5a5.32,5.32,0,0,1-7.51,0l-5.07-5.07a5.31,5.31,0,0,1,0-7.5l2.5-2.51c-.16-.36-.31-.72-.45-1.09H63.19a5.31,5.31,0,0,1-5.3-5.3V82.15a5.31,5.31,0,0,1,5.3-5.3h3.54c.14-.37.29-.73.45-1.09l-2.5-2.51a5.31,5.31,0,0,1,0-7.5l5.07-5.07a5.32,5.32,0,0,1,7.51,0l2.5,2.5c.36-.16.73-.32,1.09-.46V59.19a5.31,5.31,0,0,1,5.31-5.31h7.17a5.31,5.31,0,0,1,5.31,5.31v3.53c.36.14.72.3,1.09.46l2.5-2.5a5.31,5.31,0,0,1,7.5,0l5.08,5.07a5.31,5.31,0,0,1,0,7.5l-2.5,2.51c.16.36.31.72.45,1.09h3.54a5.31,5.31,0,0,1,5.3,5.3v7.18a5.31,5.31,0,0,1-5.3,5.3h-3.54c-.14.37-.29.73-.45,1.09l2.5,2.51a5.31,5.31,0,0,1,0,7.5l-5.08,5.07a5.31,5.31,0,0,1-7.5,0l-2.5-2.5c-.36.16-.73.32-1.09.46v3.53A5.31,5.31,0,0,1,93.33,117.6Zm-14-13.73a2,2,0,0,1,.92.23,19.64,19.64,0,0,0,3.19,1.33,2,2,0,0,1,1.4,1.91v5a1.3,1.3,0,0,0,1.3,1.3h7.17a1.3,1.3,0,0,0,1.3-1.3v-5A2,2,0,0,1,96,105.43a19.74,19.74,0,0,0,3.2-1.33,2,2,0,0,1,2.34.36l3.5,3.51a1.32,1.32,0,0,0,1.84,0l5.07-5.08a1.29,1.29,0,0,0,0-1.83l-3.51-3.51a2,2,0,0,1-.36-2.34A20.64,20.64,0,0,0,109.44,92a2,2,0,0,1,1.91-1.4h5a1.29,1.29,0,0,0,1.29-1.29V82.15a1.29,1.29,0,0,0-1.29-1.29h-5a2,2,0,0,1-1.91-1.4,21.16,21.16,0,0,0-1.34-3.2,2,2,0,0,1,.36-2.33L112,70.42a1.29,1.29,0,0,0,0-1.83l-5.07-5.08a1.32,1.32,0,0,0-1.84,0L101.56,67a2,2,0,0,1-2.34.36A20.41,20.41,0,0,0,96,66.05a2,2,0,0,1-1.4-1.91v-5a1.3,1.3,0,0,0-1.3-1.3H86.16a1.3,1.3,0,0,0-1.3,1.3v5a2,2,0,0,1-1.4,1.91,20,20,0,0,0-3.19,1.33A2,2,0,0,1,77.93,67l-3.51-3.51a1.3,1.3,0,0,0-1.83,0l-5.07,5.08a1.29,1.29,0,0,0,0,1.83L71,73.93a2,2,0,0,1,.37,2.34,20.64,20.64,0,0,0-1.34,3.19,2,2,0,0,1-1.91,1.4h-5a1.29,1.29,0,0,0-1.29,1.29v7.18a1.29,1.29,0,0,0,1.29,1.29h5A2,2,0,0,1,70.05,92a20.24,20.24,0,0,0,1.34,3.19A2,2,0,0,1,71,97.55l-3.5,3.51a1.29,1.29,0,0,0,0,1.83L72.59,108a1.3,1.3,0,0,0,1.83,0l3.51-3.51A2,2,0,0,1,79.35,103.87Z"/><path class="cls-1" d="M89.74,110.42a24.68,24.68,0,1,1,24.69-24.68A24.71,24.71,0,0,1,89.74,110.42Zm0-45.35a20.67,20.67,0,1,0,20.68,20.67A20.7,20.7,0,0,0,89.74,65.07Z"/><path class="cls-1" d="M89.74,98.76a13,13,0,0,1-13-13,2,2,0,1,1,4,0,9,9,0,1,0,9-9,2,2,0,0,1,0-4,13,13,0,1,1,0,26Z"/></g></g></svg>